<?xml version="1.0" standalone="no"?>
<!DOCTYPE svg PUBLIC "-//W3C//DTD SVG 20010904//EN"
 "http://www.w3.org/TR/2001/REC-SVG-20010904/DTD/svg10.dtd">
<svg version="1.0" xmlns="http://www.w3.org/2000/svg"
 width="778.000000pt" height="778.000000pt" viewBox="0 0 778.000000 778.000000"
 preserveAspectRatio="xMidYMid meet">
<metadata>
Created by potrace 1.14, written by Peter Selinger 2001-2017
</metadata>
<g transform="translate(0.000000,778.000000) scale(0.100000,-0.100000)"
fill="#000000" stroke="none">
<path d="M3426 7185 c-73 -471 -203 -855 -325 -957 -66 -56 -218 -75 -345 -42
-179 45 -375 191 -534 399 -19 26 -18 21 6 -30 146 -301 221 -634 183 -817
-16 -76 -64 -170 -106 -207 l-34 -29 34 -26 c19 -15 48 -46 66 -71 l33 -45 23
22 c41 39 82 136 93 222 22 177 -44 466 -170 733 -22 47 -40 88 -40 90 0 3 21
-24 47 -59 68 -92 217 -236 302 -292 179 -119 396 -142 497 -54 106 93 208
460 270 973 l7 60 17 -135 c36 -281 102 -583 165 -760 102 -283 253 -446 397
-427 164 22 408 289 598 655 17 34 33 62 34 62 1 0 -1 -26 -5 -57 -13 -101
-10 -292 6 -399 42 -283 161 -470 359 -565 73 -35 97 -42 168 -46 123 -7 206
15 269 71 64 57 113 80 174 80 95 0 178 -67 271 -217 47 -76 54 -82 87 -85 30
-3 36 0 31 12 -3 9 -1 16 5 16 6 0 11 -6 11 -14 0 -10 15 -14 56 -15 45 0 55
3 50 14 -3 9 0 15 9 15 9 0 12 -6 9 -15 -5 -12 4 -15 50 -15 43 0 56 3 56 15
0 8 5 15 10 15 6 0 10 -7 10 -15 0 -12 13 -15 55 -15 40 0 55 4 53 13 -2 6 2
13 7 14 6 1 9 -5 7 -13 -2 -9 6 -14 22 -14 28 0 81 -48 123 -111 14 -21 32
-39 39 -39 8 0 14 -9 14 -19 0 -37 11 -51 35 -45 29 7 44 -15 21 -32 -16 -11
-15 -16 15 -71 18 -32 38 -65 44 -73 7 -8 15 -28 19 -43 4 -16 12 -27 19 -24
14 5 14 2 -3 85 -11 55 -15 62 -36 62 -28 0 -32 24 -8 38 15 8 15 13 0 63 -30
93 -38 111 -46 98 -4 -6 -13 -8 -19 -5 -16 10 -14 26 4 26 22 0 18 17 -23 101
l-37 77 35 -31 c19 -16 42 -44 51 -61 10 -18 23 -30 33 -28 17 3 23 -14 6 -20
-5 -1 2 -22 16 -45 l25 -43 235 0 c260 0 267 -1 322 -64 59 -68 153 -238 192
-348 25 -70 27 -28 4 79 -67 304 -186 555 -308 648 -68 51 -88 54 -413 55
l-302 0 -44 31 c-59 42 -98 48 -275 49 l-153 0 6 23 c16 50 96 240 135 317
l41 82 -63 -46 c-192 -140 -420 -264 -595 -323 -137 -45 -295 -57 -384 -28
-207 67 -377 251 -438 476 -38 138 -45 388 -16 524 6 26 5 28 -7 13 -7 -10
-35 -57 -63 -104 -107 -184 -287 -394 -404 -471 -213 -141 -395 -63 -544 233
-97 193 -178 518 -220 884 -13 111 -14 113 -21 65z m2626 -1397 c-21 -35 -60
-105 -87 -155 l-49 -93 -120 0 -120 0 84 56 c89 59 217 157 285 218 22 19 41
35 42 36 2 0 -14 -28 -35 -62z m278 -468 c0 -5 -5 -10 -11 -10 -5 0 -7 5 -4
10 3 6 8 10 11 10 2 0 4 -4 4 -10z m190 -70 c0 -5 -4 -10 -10 -10 -5 0 -10 5
-10 10 0 6 5 10 10 10 6 0 10 -4 10 -10z m250 0 c0 -5 -2 -10 -4 -10 -3 0 -8
5 -11 10 -3 6 -1 10 4 10 6 0 11 -4 11 -10z m-180 -60 c0 -5 -7 -10 -15 -10
-8 0 -15 5 -15 10 0 6 7 10 15 10 8 0 15 -4 15 -10z m250 0 c0 -5 -4 -10 -10
-10 -5 0 -10 5 -10 10 0 6 5 10 10 10 6 0 10 -4 10 -10z m120 0 c0 -5 -4 -10
-10 -10 -5 0 -10 5 -10 10 0 6 5 10 10 10 6 0 10 -4 10 -10z m-182 -61 c-2 -6
-8 -10 -13 -10 -5 0 -11 4 -13 10 -2 6 4 11 13 11 9 0 15 -5 13 -11z m122 1
c0 -5 -4 -10 -10 -10 -5 0 -10 5 -10 10 0 6 5 10 10 10 6 0 10 -4 10 -10z
m125 0 c3 -5 -1 -10 -10 -10 -9 0 -13 5 -10 10 3 6 8 10 10 10 2 0 7 -4 10
-10z m439 -321 c-3 -5 -10 -7 -15 -3 -5 3 -7 10 -3 15 3 5 10 7 15 3 5 -3 7
-10 3 -15z"/>
<path d="M1407 5526 c-20 -8 -52 -25 -71 -40 l-35 -26 -303 0 c-327 -1 -346
-4 -414 -55 -87 -66 -181 -227 -244 -415 -36 -109 -90 -331 -83 -343 3 -5 24
36 48 90 59 136 108 222 166 288 56 64 63 65 323 65 l234 0 21 36 c13 22 19
44 15 56 -4 15 -2 19 11 16 11 -2 24 8 34 27 8 17 31 44 51 61 l35 32 -37 -77
c-41 -84 -45 -101 -23 -101 18 0 20 -16 4 -26 -6 -3 -15 -1 -19 6 -10 16 -13
10 -39 -79 -20 -67 -21 -75 -7 -83 24 -14 19 -38 -7 -38 -21 0 -25 -7 -36 -57
-7 -32 -15 -66 -17 -75 -4 -12 0 -18 10 -18 9 0 19 12 22 28 4 15 12 34 19 42
6 8 26 41 44 73 30 55 31 60 15 71 -23 17 -8 39 21 32 24 -6 35 8 35 45 0 10
6 19 14 19 7 0 25 18 39 39 42 63 95 111 123 111 16 0 24 5 22 14 -2 8 2 14 7
13 6 -1 9 -6 7 -13 -1 -7 18 -12 53 -13 43 -1 55 2 55 14 0 8 5 15 10 15 6 0
10 -6 10 -13 0 -10 17 -14 56 -16 47 -1 55 1 50 14 -3 9 0 15 9 15 9 0 12 -6
9 -15 -5 -12 4 -15 50 -15 43 0 56 3 56 15 0 8 5 15 11 15 6 0 8 -7 5 -15 -4
-13 2 -15 31 -13 31 2 40 8 62 46 80 135 136 198 211 237 l45 24 -335 0 c-255
0 -344 -3 -373 -13z m-387 -270 c0 -3 -4 -8 -10 -11 -5 -3 -10 -1 -10 4 0 6 5
11 10 11 6 0 10 -2 10 -4z m250 -6 c0 -5 -4 -10 -10 -10 -5 0 -10 5 -10 10 0
6 5 10 10 10 6 0 10 -4 10 -10z m-440 -60 c0 -5 -4 -10 -10 -10 -5 0 -10 5
-10 10 0 6 5 10 10 10 6 0 10 -4 10 -10z m120 0 c0 -5 -4 -10 -10 -10 -5 0
-10 5 -10 10 0 6 5 10 10 10 6 0 10 -4 10 -10z m260 0 c0 -5 -7 -10 -15 -10
-8 0 -15 5 -15 10 0 6 7 10 15 10 8 0 15 -4 15 -10z m-445 -60 c3 -5 -1 -10
-10 -10 -9 0 -13 5 -10 10 3 6 8 10 10 10 2 0 7 -4 10 -10z m125 0 c0 -5 -4
-10 -10 -10 -5 0 -10 5 -10 10 0 6 5 10 10 10 6 0 10 -4 10 -10z m128 -1 c-2
-6 -8 -10 -13 -10 -5 0 -11 4 -13 10 -2 6 4 11 13 11 9 0 15 -5 13 -11z m-694
-320 c-3 -5 -10 -7 -15 -3 -5 3 -7 10 -3 15 3 5 10 7 15 3 5 -3 7 -10 3 -15z"/>
<path d="M3609 5350 c-46 -8 -131 -46 -183 -83 -28 -20 -30 -20 -75 -3 -100
39 -190 58 -293 63 -101 5 -111 4 -161 -21 -104 -50 -246 -204 -283 -307 -16
-44 -15 -94 2 -243 l7 -56 -39 0 -39 0 -19 83 c-59 266 -178 489 -283 533
-206 87 -393 -259 -470 -867 -23 -189 -23 -633 0 -824 45 -357 128 -631 236
-774 67 -90 128 -121 208 -106 47 9 138 99 178 177 17 32 33 58 36 58 3 0 26
-17 50 -38 59 -51 211 -171 337 -266 l103 -78 -5 -77 c-4 -42 -11 -146 -17
-231 -9 -142 -31 -309 -120 -910 l-31 -215 -82 -81 -82 -81 15 76 c22 121 18
367 -8 466 -71 264 -220 400 -478 436 -192 27 -536 -50 -861 -192 l-67 -29 35
28 c120 94 216 181 277 249 132 147 238 312 284 446 l24 67 150 0 149 0 -54
33 c-200 119 -361 564 -409 1132 -14 153 -14 496 -1 644 6 63 8 116 6 118 -2
3 -10 -21 -17 -53 -7 -32 -21 -66 -30 -75 -10 -10 -15 -26 -13 -36 7 -25 -43
-150 -63 -157 -8 -4 -13 -13 -9 -21 10 -28 -4 -45 -33 -39 -36 8 -49 -19 -20
-40 20 -14 19 -15 -25 -62 -43 -45 -47 -46 -64 -31 -23 21 -41 22 -48 2 -4 -9
-19 -15 -39 -15 -20 0 -35 6 -39 15 -3 8 -15 15 -26 15 -11 0 -23 -7 -26 -15
-8 -20 -70 -20 -78 0 -3 8 -12 15 -21 15 -9 0 -18 -7 -21 -15 -8 -21 -70 -20
-78 1 -3 9 -15 14 -28 12 -22 -3 -23 -6 -21 -113 6 -249 60 -588 128 -800 4
-13 1 -11 -9 6 -24 42 -93 259 -121 385 -46 206 -66 367 -72 585 l-6 205 -24
-22 c-13 -12 -21 -28 -17 -37 15 -40 -103 -201 -168 -228 -26 -11 -32 -10 -40
4 -11 21 -37 22 -44 2 -9 -21 -73 -20 -89 2 -13 17 -14 17 -32 0 -21 -18 -78
-23 -88 -7 -3 6 -15 10 -26 10 -10 0 -19 -4 -19 -10 0 -14 -73 -13 -87 1 -23
23 -32 -2 -27 -74 20 -291 43 -456 94 -653 79 -305 207 -523 343 -585 38 -17
69 -19 353 -19 271 0 313 -2 325 -16 7 -8 31 -25 53 -37 34 -18 62 -22 169
-25 l128 -4 -6 -32 c-14 -66 -66 -208 -104 -283 -61 -122 -153 -242 -274 -360
-61 -59 -110 -112 -109 -116 1 -5 -1 -6 -6 -3 -7 4 -88 -46 -109 -68 -3 -3 39
13 94 34 322 126 646 169 871 114 180 -43 333 -165 410 -325 51 -104 71 -185
81 -312 8 -93 1 -241 -15 -324 l-7 -38 87 82 c251 238 621 398 1021 443 506
56 1162 -88 1757 -386 48 -24 91 -44 95 -44 5 0 18 57 31 127 25 143 77 307
125 396 145 274 422 309 852 107 55 -25 137 -68 182 -93 45 -26 85 -47 88 -47
3 0 -18 28 -46 63 -211 253 -344 564 -326 762 12 126 83 251 195 340 l57 45
236 0 c233 0 236 0 287 26 197 98 367 529 411 1044 22 250 20 293 -12 261 -14
-14 -87 -15 -87 -1 0 6 -9 10 -20 10 -11 0 -20 -4 -20 -10 0 -17 -72 -11 -93
7 -18 17 -19 17 -32 0 -16 -22 -80 -23 -89 -2 -7 20 -33 19 -44 -2 -23 -40
-127 45 -182 149 -18 32 -29 66 -26 75 4 9 -3 24 -17 37 l-24 22 -6 -205 c-6
-218 -26 -379 -72 -585 -27 -119 -102 -358 -125 -392 -11 -18 -11 -18 -5 1 67
208 122 552 127 795 3 113 3 115 -20 118 -13 2 -25 -3 -28 -12 -8 -21 -70 -22
-78 -1 -3 8 -12 15 -19 15 -8 0 -20 -7 -27 -15 -7 -8 -26 -15 -42 -15 -16 0
-31 6 -34 15 -4 8 -15 15 -25 15 -11 0 -22 -7 -25 -15 -4 -9 -19 -15 -39 -15
-20 0 -35 6 -39 15 -7 20 -36 19 -51 -1 -10 -15 -17 -11 -61 30 -43 42 -47 49
-31 57 9 6 17 19 17 31 0 17 -4 20 -30 15 -30 -6 -35 -1 -30 32 1 7 -8 22 -18
32 -25 23 -65 127 -58 152 2 10 -3 26 -13 36 -9 9 -23 43 -30 75 -7 32 -15 56
-17 53 -2 -2 0 -55 6 -118 13 -146 13 -480 0 -634 -49 -574 -209 -1022 -410
-1142 l-54 -33 325 0 325 0 -27 -58 c-63 -134 -69 -263 -19 -415 51 -152 175
-352 311 -501 28 -31 49 -56 47 -56 -3 0 -49 30 -103 66 -307 205 -564 265
-780 182 -162 -62 -260 -265 -310 -645 -8 -64 -17 -119 -19 -121 -3 -2 -28 14
-58 36 -29 22 -107 75 -173 117 -66 42 -123 80 -128 84 -4 4 -12 65 -17 137
-47 605 -59 791 -55 823 6 48 21 181 36 311 l12 105 71 75 c109 115 142 196
161 394 l7 69 38 -96 c83 -212 176 -317 279 -317 109 0 217 136 296 372 224
671 142 1811 -154 2140 -126 141 -265 90 -379 -138 -34 -67 -96 -247 -107
-309 -11 -60 -14 -61 -50 -8 -89 132 -248 223 -389 223 -45 0 -57 5 -101 41
-124 103 -267 181 -362 199 -65 11 -160 -2 -232 -33 -32 -14 -36 -13 -100 24
-128 74 -301 117 -402 99z m197 -194 l69 -25 -70 -1 c-142 -4 -142 -12 -1 -50
123 -33 130 -36 139 -65 14 -46 13 -641 -2 -890 -12 -210 -14 -222 -38 -254
-39 -51 -82 -65 -199 -66 -94 0 -103 2 -140 27 -75 52 -72 35 -104 658 -10
206 -5 572 8 597 6 11 42 36 79 56 86 46 154 49 259 13z m-643 -15 c8 -8 2
-11 -23 -12 -19 -1 -48 -5 -65 -8 -28 -7 -25 -8 30 -20 33 -7 90 -19 127 -27
l66 -15 6 -82 c3 -45 7 -116 10 -157 l4 -76 -56 0 c-32 0 -100 -5 -152 -12
-52 -6 -150 -14 -217 -18 l-123 -7 0 124 c0 118 1 127 26 164 36 53 80 101
129 137 39 29 42 30 133 25 51 -2 98 -9 105 -16z m1256 -87 c40 -20 71 -37 69
-39 -2 -2 -34 4 -72 12 -121 25 -117 13 23 -65 l131 -73 -5 -57 c-5 -55 -19
-254 -31 -417 -9 -132 -34 -335 -51 -410 -20 -90 -44 -137 -85 -167 -29 -20
-44 -23 -123 -22 -49 1 -102 6 -117 12 -60 25 -58 3 -51 631 l6 573 61 29 c88
42 151 40 245 -7z m487 -228 c57 -26 149 -94 141 -103 -3 -2 -22 4 -44 15 -21
11 -56 27 -78 36 -37 14 -32 8 58 -77 l97 -92 -10 -85 c-6 -47 -20 -125 -31
-175 -26 -118 -119 -465 -131 -489 -17 -32 -91 -107 -121 -123 -57 -29 -164
10 -182 66 -3 10 8 112 24 227 17 115 35 254 42 309 6 55 24 190 39 299 31
222 35 231 102 223 20 -3 63 -17 94 -31z m-1795 -335 c-29 -57 -41 -71 -65
-75 -47 -10 -164 -7 -212 5 -46 12 -103 60 -105 88 0 9 -5 5 -10 -9 -25 -61
20 -140 92 -160 37 -11 248 -14 295 -4 25 5 35 18 70 92 23 48 51 98 63 112
l20 25 1 -30 c0 -47 -26 -138 -59 -203 -84 -166 -335 -296 -525 -272 -39 5
-91 16 -115 25 -24 8 -46 13 -49 10 -3 -2 29 -38 70 -79 55 -55 85 -77 116
-86 24 -6 41 -14 38 -18 -3 -5 -1 -14 4 -21 11 -19 44 -5 36 15 -5 12 0 15 21
12 19 -2 29 -10 34 -30 6 -23 4 -28 -12 -28 -13 0 -19 -7 -19 -24 0 -16 -7
-27 -20 -31 -12 -4 -40 -18 -63 -32 l-42 -25 98 6 c77 4 105 2 128 -9 16 -9
28 -19 28 -23 -4 -26 3 -34 24 -28 14 3 32 -1 43 -9 11 -8 14 -15 7 -15 -18 0
-16 -40 2 -40 7 0 18 7 23 15 7 14 12 14 43 2 19 -8 67 -17 108 -21 101 -9
121 -15 121 -36 0 -20 17 -30 38 -22 6 2 12 10 12 18 0 22 51 17 77 -8 18 -17
26 -19 35 -10 15 15 84 16 93 2 4 -6 16 -9 28 -8 12 1 52 -2 90 -6 56 -7 67
-11 67 -27 0 -27 30 -37 45 -16 16 22 27 21 77 -4 93 -47 213 -219 153 -219
-8 0 -15 -7 -15 -15 0 -8 7 -15 15 -15 12 0 15 -13 15 -55 0 -44 -3 -53 -15
-49 -8 4 -15 1 -15 -5 0 -6 7 -11 17 -11 14 0 15 -12 9 -112 -9 -150 -17 -181
-64 -236 -54 -65 -200 -181 -302 -242 l-85 -50 305 1 c172 0 296 4 285 9 -12
4 -76 21 -143 36 l-121 28 42 27 c99 62 174 158 184 236 6 53 -8 199 -33 343
l-15 85 27 58 c15 31 34 57 41 57 7 0 13 9 13 19 0 37 11 51 35 45 30 -7 44
15 20 32 -18 13 -18 14 0 34 16 18 19 18 30 3 15 -21 48 -10 43 14 -2 12 -12
18 -28 17 -23 -1 -23 -1 5 22 26 21 31 22 45 9 23 -20 29 -19 40 9 7 20 15 24
44 23 26 -1 36 -7 36 -18 0 -23 26 -31 44 -14 12 12 24 12 87 -2 41 -9 115
-16 164 -17 75 0 100 4 153 26 45 19 62 22 62 12 0 -22 21 -27 26 -7 4 15 14
19 47 17 23 -1 45 -2 48 -3 7 -1 28 -92 39 -173 16 -114 -18 -474 -51 -539
-20 -40 -138 -194 -231 -303 l-59 -69 27 -28 27 -28 -6 -143 c-5 -116 0 -211
28 -527 19 -212 35 -402 35 -422 l0 -37 -107 48 c-60 26 -157 64 -218 84 -104
34 -312 86 -345 86 -13 0 -19 31 -33 168 -9 92 -26 250 -39 352 -19 164 -23
181 -31 145 -6 -22 -10 -176 -11 -342 l-1 -303 -143 0 -144 0 6 248 5 247 -28
-111 c-16 -61 -37 -169 -46 -240 -22 -162 -19 -154 -51 -154 -44 0 -221 -39
-323 -71 -95 -31 -297 -123 -377 -173 l-41 -25 33 167 c61 305 123 675 140
828 l17 151 66 23 c36 13 70 26 74 30 5 4 -94 92 -220 196 -270 222 -476 399
-519 445 -17 19 -46 61 -63 94 -46 84 -143 314 -185 435 -39 111 -48 186 -62
544 l-7 169 83 77 82 78 197 6 c108 4 257 10 331 15 74 4 158 9 186 10 l51 1
-36 -69z m2486 -73 c48 -53 77 -150 89 -300 5 -63 4 -88 -5 -88 -6 0 -11 -7
-11 -15 0 -8 5 -15 11 -15 8 0 10 -13 6 -37 -3 -21 -11 -69 -17 -106 -12 -80
-34 -137 -52 -137 -7 0 -25 33 -39 75 -20 59 -23 75 -12 75 9 0 13 7 11 18 -3
11 -12 16 -26 15 -16 -2 -23 4 -28 25 -9 33 -35 71 -50 72 -7 0 -14 7 -18 15
-3 8 -15 15 -26 15 -11 0 -20 -7 -20 -15 0 -24 -62 -19 -83 6 -17 19 -20 20
-36 5 -24 -22 -73 -20 -92 3 -15 17 -15 28 2 132 25 151 27 159 40 156 7 -1
14 4 16 11 3 6 -3 12 -11 12 -12 0 -15 7 -11 25 3 14 7 36 10 50 l5 25 163 0
c157 0 164 -1 184 -22z m-2262 -556 c-17 -38 -62 -60 -135 -69 -90 -10 -156
31 -191 120 l-18 45 118 66 c114 65 176 114 210 166 15 23 16 16 24 -135 7
-136 6 -165 -8 -193z"/>
<path d="M2550 3965 c0 -8 9 -15 20 -15 11 0 20 7 20 15 0 8 -9 15 -20 15 -11
0 -20 -7 -20 -15z"/>
<path d="M2614 3909 c-3 -6 -2 -15 4 -21 13 -13 32 -2 32 18 0 16 -26 19 -36
3z"/>
<path d="M2680 3840 c0 -11 7 -20 15 -20 8 0 15 9 15 20 0 11 -7 20 -15 20 -8
0 -15 -9 -15 -20z"/>
<path d="M2552 3839 c2 -6 8 -10 13 -10 5 0 11 4 13 10 2 6 -4 11 -13 11 -9 0
-15 -5 -13 -11z"/>
<path d="M2620 3774 c0 -9 5 -14 12 -12 18 6 21 28 4 28 -9 0 -16 -7 -16 -16z"/>
<path d="M2680 3715 c0 -8 7 -15 15 -15 8 0 15 7 15 15 0 8 -7 15 -15 15 -8 0
-15 -7 -15 -15z"/>
<path d="M2802 3713 c2 -10 10 -18 18 -18 8 0 16 8 18 18 2 12 -3 17 -18 17
-15 0 -20 -5 -18 -17z"/>
<path d="M2560 3709 c0 -5 5 -7 10 -4 6 3 10 8 10 11 0 2 -4 4 -10 4 -5 0 -10
-5 -10 -11z"/>
<path d="M2745 3660 c-4 -6 -3 -16 3 -22 6 -6 12 -6 17 2 4 6 3 16 -3 22 -6 6
-12 6 -17 -2z"/>
<path d="M2864 3659 c-3 -6 -2 -15 4 -21 13 -13 32 -2 32 18 0 16 -26 19 -36
3z"/>
<path d="M2620 3650 c0 -5 5 -10 10 -10 6 0 10 5 10 10 0 6 -4 10 -10 10 -5 0
-10 -4 -10 -10z"/>
<path d="M2937 3603 c-4 -3 -7 -12 -7 -20 0 -15 26 -18 34 -4 7 11 -18 33 -27
24z"/>
<path d="M3057 3604 c-14 -15 -6 -34 14 -34 14 0 19 5 17 17 -3 18 -20 27 -31
17z"/>
<path d="M3175 3601 c-9 -16 3 -31 26 -31 14 0 19 6 17 17 -4 20 -33 29 -43
14z"/>
<path d="M2685 3590 c-3 -5 1 -10 10 -10 9 0 13 5 10 10 -3 6 -8 10 -10 10 -2
0 -7 -4 -10 -10z"/>
<path d="M2805 3591 c-3 -5 -1 -12 5 -16 12 -7 30 2 30 16 0 12 -27 12 -35 0z"/>
<path d="M3243 3534 c-8 -21 13 -42 28 -27 13 13 5 43 -11 43 -6 0 -13 -7 -17
-16z"/>
<path d="M3364 3535 c-4 -9 -2 -21 4 -27 15 -15 44 -1 40 19 -4 23 -36 29 -44
8z"/>
<path d="M3494 3535 c-7 -18 3 -35 21 -35 15 0 28 27 19 41 -8 14 -34 11 -40
-6z"/>
<path d="M3614 3535 c-4 -9 -2 -21 4 -27 15 -15 44 -1 40 19 -4 23 -36 29 -44
8z"/>
<path d="M4373 3534 c-9 -23 13 -40 32 -24 12 10 13 16 4 26 -15 18 -28 18
-36 -2z"/>
<path d="M4501 3536 c-9 -10 -8 -16 4 -26 19 -16 41 1 32 24 -8 20 -21 20 -36
2z"/>
<path d="M2870 3525 c0 -9 5 -15 11 -13 6 2 11 8 11 13 0 5 -5 11 -11 13 -6 2
-11 -4 -11 -13z"/>
<path d="M2990 3525 c0 -10 7 -15 18 -13 21 4 19 22 -2 26 -10 2 -16 -3 -16
-13z"/>
<path d="M3116 3531 c-3 -5 0 -14 8 -20 10 -8 16 -8 25 2 6 8 8 17 4 20 -9 10
-31 9 -37 -2z"/>
<path d="M4624 3529 c-7 -12 15 -31 28 -23 4 3 8 12 8 20 0 17 -26 19 -36 3z"/>
<path d="M4750 3525 c0 -10 7 -15 18 -13 21 4 19 22 -2 26 -10 2 -16 -3 -16
-13z"/>
<path d="M4882 3528 c6 -18 28 -21 28 -4 0 9 -7 16 -16 16 -9 0 -14 -5 -12
-12z"/>
<path d="M3561 3481 c-17 -11 -7 -41 13 -41 22 0 30 20 15 36 -9 8 -19 10 -28
5z"/>
<path d="M3687 3484 c-16 -16 -7 -44 14 -44 15 0 20 5 17 22 -3 22 -19 33 -31
22z"/>
<path d="M3809 3474 c-9 -11 -9 -18 -1 -26 14 -14 42 -3 42 16 0 20 -27 27
-41 10z"/>
<path d="M2936 3472 c-3 -6 -1 -14 5 -17 15 -10 25 3 12 16 -7 7 -13 7 -17 1z"/>
<path d="M3055 3470 c-3 -6 1 -13 10 -16 19 -8 30 0 20 15 -8 14 -22 14 -30 1z"/>
<path d="M3182 3463 c2 -10 10 -18 18 -18 22 0 18 29 -3 33 -14 3 -18 -1 -15
-15z"/>
<path d="M3305 3470 c-8 -14 3 -30 21 -30 8 0 14 9 14 20 0 21 -24 28 -35 10z"/>
<path d="M3432 3463 c2 -10 10 -18 18 -18 8 0 16 8 18 18 2 12 -3 17 -18 17
-15 0 -20 -5 -18 -17z"/>
<path d="M4312 3463 c2 -10 10 -18 18 -18 8 0 16 8 18 18 2 12 -3 17 -18 17
-15 0 -20 -5 -18 -17z"/>
<path d="M4435 3470 c-8 -13 3 -30 20 -30 14 0 27 24 18 34 -10 9 -31 7 -38
-4z"/>
<path d="M4562 3463 c2 -10 10 -18 18 -18 8 0 16 8 18 18 2 12 -3 17 -18 17
-15 0 -20 -5 -18 -17z"/>
<path d="M4690 3465 c0 -8 7 -15 15 -15 8 0 15 7 15 15 0 8 -7 15 -15 15 -8 0
-15 -7 -15 -15z"/>
<path d="M4820 3466 c0 -9 7 -16 16 -16 9 0 14 5 12 12 -6 18 -28 21 -28 4z"/>
<path d="M2810 3460 c0 -5 5 -10 10 -10 6 0 10 5 10 10 0 6 -4 10 -10 10 -5 0
-10 -4 -10 -10z"/>
<path d="M4950 3459 c0 -5 5 -7 10 -4 6 3 10 8 10 11 0 2 -4 4 -10 4 -5 0 -10
-5 -10 -11z"/>
<path d="M3125 3410 c-4 -6 -3 -16 3 -22 6 -6 12 -6 17 2 4 6 3 16 -3 22 -6 6
-12 6 -17 -2z"/>
<path d="M3244 3409 c-10 -17 13 -36 27 -22 12 12 4 33 -11 33 -5 0 -12 -5
-16 -11z"/>
<path d="M3370 3400 c0 -15 5 -20 18 -18 9 2 17 10 17 18 0 8 -8 16 -17 18
-13 2 -18 -3 -18 -18z"/>
<path d="M3495 3410 c-8 -14 3 -30 21 -30 8 0 14 9 14 20 0 21 -24 28 -35 10z"/>
<path d="M3620 3400 c0 -15 5 -20 18 -18 9 2 17 10 17 18 0 8 -8 16 -17 18
-13 2 -18 -3 -18 -18z"/>
<path d="M3745 3410 c-4 -7 -3 -16 3 -22 14 -14 45 -2 40 15 -6 16 -34 21 -43
7z"/>
<path d="M3870 3401 c0 -15 6 -21 21 -21 25 0 22 33 -4 38 -12 2 -17 -3 -17
-17z"/>
<path d="M4245 3410 c-4 -7 -3 -16 3 -22 14 -14 45 -2 40 15 -6 16 -34 21 -43
7z"/>
<path d="M4374 3409 c-10 -17 13 -36 27 -22 12 12 4 33 -11 33 -5 0 -12 -5
-16 -11z"/>
<path d="M4505 3410 c-7 -12 2 -30 16 -30 12 0 12 27 0 35 -5 3 -12 1 -16 -5z"/>
<path d="M4634 3406 c-8 -22 -2 -27 16 -16 12 7 12 12 3 21 -10 10 -14 9 -19
-5z"/>
<path d="M3000 3400 c0 -5 5 -10 10 -10 6 0 10 5 10 10 0 6 -4 10 -10 10 -5 0
-10 -4 -10 -10z"/>
<path d="M4760 3400 c0 -5 5 -10 10 -10 6 0 10 5 10 10 0 6 -4 10 -10 10 -5 0
-10 -4 -10 -10z"/>
<path d="M3561 3346 c-12 -14 -5 -26 16 -26 15 0 18 26 4 34 -5 3 -14 0 -20
-8z"/>
<path d="M3687 3354 c-14 -15 -6 -34 14 -34 14 0 19 5 17 17 -3 18 -20 27 -31
17z"/>
<path d="M3810 3340 c0 -11 6 -20 13 -20 19 0 27 10 20 26 -8 21 -33 17 -33
-6z"/>
<path d="M3935 3351 c-8 -15 3 -31 21 -31 9 0 14 7 12 17 -4 20 -24 28 -33 14z"/>
<path d="M4185 3351 c-8 -15 3 -31 21 -31 9 0 14 7 12 17 -4 20 -24 28 -33 14z"/>
<path d="M3060 3340 c0 -5 5 -10 10 -10 6 0 10 5 10 10 0 6 -4 10 -10 10 -5 0
-10 -4 -10 -10z"/>
<path d="M3182 3338 c6 -18 28 -21 28 -4 0 9 -7 16 -16 16 -9 0 -14 -5 -12
-12z"/>
<path d="M3310 3335 c0 -8 7 -15 15 -15 8 0 15 7 15 15 0 8 -7 15 -15 15 -8 0
-15 -7 -15 -15z"/>
<path d="M3430 3334 c0 -9 7 -14 17 -12 25 5 28 28 4 28 -12 0 -21 -6 -21 -16z"/>
<path d="M4310 3334 c0 -9 7 -14 17 -12 25 5 28 28 4 28 -12 0 -21 -6 -21 -16z"/>
<path d="M4440 3335 c0 -8 7 -15 15 -15 8 0 15 7 15 15 0 8 -7 15 -15 15 -8 0
-15 -7 -15 -15z"/>
<path d="M4570 3335 c0 -9 5 -15 11 -13 6 2 11 8 11 13 0 5 -5 11 -11 13 -6 2
-11 -4 -11 -13z"/>
<path d="M4695 3340 c-3 -5 1 -10 10 -10 9 0 13 5 10 10 -3 6 -8 10 -10 10 -2
0 -7 -4 -10 -10z"/>
<path d="M3250 3275 c0 -8 5 -15 10 -15 6 0 10 7 10 15 0 8 -4 15 -10 15 -5 0
-10 -7 -10 -15z"/>
<path d="M3377 3284 c-8 -8 1 -24 14 -24 5 0 9 7 9 15 0 15 -12 20 -23 9z"/>
<path d="M3500 3276 c0 -9 7 -16 16 -16 17 0 14 22 -4 28 -7 2 -12 -3 -12 -12z"/>
<path d="M3620 3275 c0 -10 7 -15 18 -13 21 4 19 22 -2 26 -10 2 -16 -3 -16
-13z"/>
<path d="M3747 3284 c-9 -10 2 -24 19 -24 8 0 14 7 14 15 0 15 -21 21 -33 9z"/>
<path d="M3870 3275 c0 -10 7 -15 18 -13 21 4 19 22 -2 26 -10 2 -16 -3 -16
-13z"/>
<path d="M4125 3279 c-10 -15 1 -23 20 -15 9 3 13 10 10 16 -8 13 -22 13 -30
-1z"/>
<path d="M4250 3275 c0 -8 7 -15 15 -15 8 0 15 7 15 15 0 8 -7 15 -15 15 -8 0
-15 -7 -15 -15z"/>
<path d="M4380 3275 c0 -9 5 -15 11 -13 6 2 11 8 11 13 0 5 -5 11 -11 13 -6 2
-11 -4 -11 -13z"/>
<path d="M4506 3282 c-3 -6 -1 -14 5 -17 15 -10 25 3 12 16 -7 7 -13 7 -17 1z"/>
<path d="M3125 3270 c3 -5 8 -10 11 -10 2 0 4 5 4 10 0 6 -5 10 -11 10 -5 0
-7 -4 -4 -10z"/>
<path d="M4635 3270 c3 -5 8 -10 11 -10 2 0 4 5 4 10 0 6 -5 10 -11 10 -5 0
-7 -4 -4 -10z"/>
<path d="M3566 3223 c-11 -11 -6 -23 9 -23 8 0 15 4 15 9 0 13 -16 22 -24 14z"/>
<path d="M3687 3224 c-8 -8 1 -24 14 -24 5 0 9 7 9 15 0 15 -12 20 -23 9z"/>
<path d="M3816 3223 c-11 -11 -6 -23 9 -23 8 0 15 4 15 9 0 13 -16 22 -24 14z"/>
<path d="M3935 3220 c-3 -6 1 -13 10 -16 19 -8 30 0 20 15 -8 14 -22 14 -30 1z"/>
<path d="M4196 3223 c-11 -11 -6 -23 9 -23 8 0 15 4 15 9 0 13 -16 22 -24 14z"/>
<path d="M3190 3209 c0 -5 5 -7 10 -4 6 3 10 8 10 11 0 2 -4 4 -10 4 -5 0 -10
-5 -10 -11z"/>
<path d="M3315 3210 c3 -5 8 -10 11 -10 2 0 4 5 4 10 0 6 -5 10 -11 10 -5 0
-7 -4 -4 -10z"/>
<path d="M3440 3210 c0 -5 5 -10 10 -10 6 0 10 5 10 10 0 6 -4 10 -10 10 -5 0
-10 -4 -10 -10z"/>
<path d="M4320 3210 c0 -5 5 -10 10 -10 6 0 10 5 10 10 0 6 -4 10 -10 10 -5 0
-10 -4 -10 -10z"/>
<path d="M4445 3210 c3 -5 8 -10 11 -10 2 0 4 5 4 10 0 6 -5 10 -11 10 -5 0
-7 -4 -4 -10z"/>
<path d="M3500 3150 c0 -5 5 -10 10 -10 6 0 10 5 10 10 0 6 -4 10 -10 10 -5 0
-10 -4 -10 -10z"/>
<path d="M3630 3150 c0 -5 5 -10 10 -10 6 0 10 5 10 10 0 6 -4 10 -10 10 -5 0
-10 -4 -10 -10z"/>
<path d="M3750 3150 c0 -5 7 -10 16 -10 8 0 12 5 9 10 -3 6 -10 10 -16 10 -5
0 -9 -4 -9 -10z"/>
<path d="M3880 3150 c0 -5 5 -10 10 -10 6 0 10 5 10 10 0 6 -4 10 -10 10 -5 0
-10 -4 -10 -10z"/>
<path d="M4130 3150 c0 -5 5 -10 10 -10 6 0 10 5 10 10 0 6 -4 10 -10 10 -5 0
-10 -4 -10 -10z"/>
<path d="M4260 3150 c0 -5 5 -10 11 -10 5 0 7 5 4 10 -3 6 -8 10 -11 10 -2 0
-4 -4 -4 -10z"/>
<path d="M4385 3150 c-3 -5 -1 -10 4 -10 6 0 11 5 11 10 0 6 -2 10 -4 10 -3 0
-8 -4 -11 -10z"/>
<path d="M4210 2887 c0 -34 51 -163 84 -213 66 -99 176 -165 298 -179 l53 -6
-77 73 c-42 40 -140 133 -218 207 -77 73 -140 126 -140 118z"/>
<path d="M2976 2879 c20 -33 223 -169 322 -216 63 -30 116 -53 118 -50 2 2
-24 31 -59 64 -41 39 -93 76 -147 103 -117 59 -242 112 -234 99z"/>
<path d="M5300 4390 c0 -5 5 -10 10 -10 6 0 10 5 10 10 0 6 -4 10 -10 10 -5 0
-10 -4 -10 -10z"/>
<path d="M5360 4330 c0 -5 5 -10 10 -10 6 0 10 5 10 10 0 6 -4 10 -10 10 -5 0
-10 -4 -10 -10z"/>
<path d="M5297 4273 c-12 -11 -8 -23 8 -23 8 0 15 7 15 15 0 16 -12 20 -23 8z"/>
<path d="M5425 4269 c-10 -15 3 -25 16 -12 7 7 7 13 1 17 -6 3 -14 1 -17 -5z"/>
<path d="M5230 4200 c0 -11 4 -20 9 -20 13 0 32 26 24 33 -13 14 -33 6 -33
-13z"/>
<path d="M5356 4211 c-3 -5 1 -14 8 -20 16 -13 32 2 21 19 -8 12 -22 13 -29 1z"/>
<path d="M5486 4213 c-11 -11 -6 -23 9 -23 8 0 15 4 15 9 0 13 -16 22 -24 14z"/>
<path d="M5615 4200 c3 -5 8 -10 11 -10 2 0 4 5 4 10 0 6 -5 10 -11 10 -5 0
-7 -4 -4 -10z"/>
<path d="M5297 4154 c-14 -14 -7 -35 11 -32 9 2 17 10 17 17 0 16 -18 25 -28
15z"/>
<path d="M5424 4146 c-8 -22 3 -33 18 -18 9 9 9 15 0 24 -9 9 -13 7 -18 -6z"/>
<path d="M5550 4141 c0 -6 5 -13 10 -16 6 -3 10 1 10 9 0 9 -4 16 -10 16 -5 0
-10 -4 -10 -9z"/>
<path d="M5224 4089 c-10 -17 23 -46 37 -32 7 7 9 19 6 27 -7 18 -33 21 -43 5z"/>
<path d="M5357 4094 c-14 -15 -6 -34 14 -34 14 0 19 5 17 17 -3 18 -20 27 -31
17z"/>
<path d="M5480 4075 c0 -8 7 -15 15 -15 8 0 15 7 15 15 0 8 -7 15 -15 15 -8 0
-15 -7 -15 -15z"/>
<path d="M5610 4075 c0 -9 5 -15 11 -13 6 2 11 8 11 13 0 5 -5 11 -11 13 -6 2
-11 -4 -11 -13z"/>
<path d="M5542 4013 c2 -10 10 -18 18 -18 22 0 18 29 -3 33 -14 3 -18 -1 -15
-15z"/>
<path d="M5604 3959 c-10 -17 13 -36 27 -22 12 12 4 33 -11 33 -5 0 -12 -5
-16 -11z"/>
<path d="M5603 3834 c-8 -21 13 -42 28 -27 13 13 5 43 -11 43 -6 0 -13 -7 -17
-16z"/>
<path d="M1007 4743 c-4 -3 -7 -13 -7 -22 1 -13 3 -13 11 2 11 19 8 33 -4 20z"/>
<path d="M6750 4743 c0 -4 5 -15 10 -23 8 -13 10 -13 10 2 0 9 -4 20 -10 23
-5 3 -10 3 -10 -2z"/>
<path d="M1025 4520 c-3 -5 -1 -10 4 -10 6 0 11 5 11 10 0 6 -2 10 -4 10 -3 0
-8 -4 -11 -10z"/>
<path d="M1150 4520 c0 -5 5 -10 10 -10 6 0 10 5 10 10 0 6 -4 10 -10 10 -5 0
-10 -4 -10 -10z"/>
<path d="M1275 4520 c-3 -5 1 -10 10 -10 9 0 13 5 10 10 -3 6 -8 10 -10 10 -2
0 -7 -4 -10 -10z"/>
<path d="M6475 4520 c-3 -5 1 -10 10 -10 9 0 13 5 10 10 -3 6 -8 10 -10 10 -2
0 -7 -4 -10 -10z"/>
<path d="M6600 4520 c0 -5 5 -10 10 -10 6 0 10 5 10 10 0 6 -4 10 -10 10 -5 0
-10 -4 -10 -10z"/>
<path d="M6730 4520 c0 -5 5 -10 11 -10 5 0 7 5 4 10 -3 6 -8 10 -11 10 -2 0
-4 -4 -4 -10z"/>
<path d="M835 4459 c-10 -15 3 -25 16 -12 7 7 7 13 1 17 -6 3 -14 1 -17 -5z"/>
<path d="M960 4455 c0 -8 5 -15 10 -15 6 0 10 7 10 15 0 8 -4 15 -10 15 -5 0
-10 -7 -10 -15z"/>
<path d="M1086 4463 c-11 -11 -6 -23 9 -23 8 0 15 4 15 9 0 13 -16 22 -24 14z"/>
<path d="M1210 4455 c0 -9 5 -15 11 -13 6 2 11 8 11 13 0 5 -5 11 -11 13 -6 2
-11 -4 -11 -13z"/>
<path d="M1337 4463 c-12 -11 -8 -23 8 -23 8 0 15 7 15 15 0 16 -12 20 -23 8z"/>
<path d="M1466 4463 c-11 -11 -6 -23 9 -23 8 0 15 4 15 9 0 13 -16 22 -24 14z"/>
<path d="M6286 4463 c-11 -11 -6 -23 9 -23 8 0 15 4 15 9 0 13 -16 22 -24 14z"/>
<path d="M6410 4456 c0 -9 7 -16 16 -16 17 0 14 22 -4 28 -7 2 -12 -3 -12 -12z"/>
<path d="M6537 4464 c-8 -8 1 -24 14 -24 5 0 9 7 9 15 0 15 -12 20 -23 9z"/>
<path d="M6666 4463 c-11 -11 -6 -23 9 -23 8 0 15 4 15 9 0 13 -16 22 -24 14z"/>
<path d="M6790 4456 c0 -8 5 -18 10 -21 6 -3 10 3 10 14 0 12 -4 21 -10 21 -5
0 -10 -6 -10 -14z"/>
<path d="M6916 4463 c-11 -11 -6 -23 9 -23 8 0 15 4 15 9 0 13 -16 22 -24 14z"/>
<path d="M585 4450 c3 -5 8 -10 11 -10 2 0 4 5 4 10 0 6 -5 10 -11 10 -5 0 -7
-4 -4 -10z"/>
<path d="M710 4450 c0 -5 5 -10 10 -10 6 0 10 5 10 10 0 6 -4 10 -10 10 -5 0
-10 -4 -10 -10z"/>
<path d="M1590 4450 c0 -5 5 -10 10 -10 6 0 10 5 10 10 0 6 -4 10 -10 10 -5 0
-10 -4 -10 -10z"/>
<path d="M6160 4450 c0 -5 5 -10 10 -10 6 0 10 5 10 10 0 6 -4 10 -10 10 -5 0
-10 -4 -10 -10z"/>
<path d="M7040 4450 c0 -5 5 -10 10 -10 6 0 10 5 10 10 0 6 -4 10 -10 10 -5 0
-10 -4 -10 -10z"/>
<path d="M7170 4449 c0 -5 5 -7 10 -4 6 3 10 8 10 11 0 2 -4 4 -10 4 -5 0 -10
-5 -10 -11z"/>
<path d="M775 4400 c-4 -6 -3 -16 3 -22 6 -6 12 -6 17 2 4 6 3 16 -3 22 -6 6
-12 6 -17 -2z"/>
<path d="M1016 4401 c-3 -5 1 -14 8 -20 16 -13 32 2 21 19 -8 12 -22 13 -29 1z"/>
<path d="M1144 4399 c-10 -17 13 -36 27 -22 12 12 4 33 -11 33 -5 0 -12 -5
-16 -11z"/>
<path d="M1275 4400 c-7 -12 2 -30 16 -30 12 0 12 27 0 35 -5 3 -12 1 -16 -5z"/>
<path d="M1394 4399 c-3 -6 -2 -15 2 -19 12 -12 38 5 30 19 -9 14 -23 14 -32
0z"/>
<path d="M1526 4403 c-11 -11 -6 -23 9 -23 8 0 15 4 15 9 0 13 -16 22 -24 14z"/>
<path d="M6225 4400 c-4 -6 -3 -16 3 -22 6 -6 12 -6 17 2 4 6 3 16 -3 22 -6 6
-12 6 -17 -2z"/>
<path d="M6344 4399 c-8 -14 18 -31 30 -19 9 9 0 30 -14 30 -5 0 -12 -5 -16
-11z"/>
<path d="M6470 4390 c0 -13 5 -20 13 -17 6 2 12 10 12 17 0 7 -6 15 -12 18 -8
2 -13 -5 -13 -18z"/>
<path d="M6594 4399 c-10 -17 13 -36 27 -22 12 12 4 33 -11 33 -5 0 -12 -5
-16 -11z"/>
<path d="M6725 4400 c-11 -17 5 -32 21 -19 7 6 11 15 8 20 -7 12 -21 11 -29
-1z"/>
<path d="M6975 4400 c-4 -6 -3 -16 3 -22 6 -6 12 -6 17 2 4 6 3 16 -3 22 -6 6
-12 6 -17 -2z"/>
<path d="M520 4390 c0 -5 5 -10 10 -10 6 0 10 5 10 10 0 6 -4 10 -10 10 -5 0
-10 -4 -10 -10z"/>
<path d="M640 4390 c0 -5 7 -10 15 -10 8 0 15 5 15 10 0 6 -7 10 -15 10 -8 0
-15 -4 -15 -10z"/>
<path d="M7102 4389 c2 -6 8 -10 13 -10 5 0 11 4 13 10 2 6 -4 11 -13 11 -9 0
-15 -5 -13 -11z"/>
<path d="M7230 4390 c0 -5 5 -10 10 -10 6 0 10 5 10 10 0 6 -4 10 -10 10 -5 0
-10 -4 -10 -10z"/>
<path d="M957 4344 c-14 -14 -7 -35 11 -32 9 2 17 10 17 17 0 16 -18 25 -28
15z"/>
<path d="M1086 4343 c-12 -12 -6 -33 9 -33 8 0 15 6 15 14 0 17 -14 28 -24 19z"/>
<path d="M1205 4341 c-8 -15 3 -31 21 -31 9 0 14 7 12 17 -4 20 -24 28 -33 14z"/>
<path d="M1337 4344 c-14 -14 -7 -35 11 -32 9 2 17 10 17 17 0 16 -18 25 -28
15z"/>
<path d="M1461 4340 c-16 -9 -6 -30 15 -30 15 0 20 25 6 34 -4 2 -14 1 -21 -4z"/>
<path d="M6283 4334 c-7 -19 2 -28 22 -21 19 8 19 23 0 31 -9 3 -18 -1 -22
-10z"/>
<path d="M6405 4341 c-8 -15 3 -31 21 -31 9 0 14 7 12 17 -4 20 -24 28 -33 14z"/>
<path d="M6537 4344 c-14 -14 -7 -35 11 -32 9 2 17 10 17 17 0 16 -18 25 -28
15z"/>
<path d="M6656 4335 c-3 -9 1 -18 10 -22 19 -7 28 2 21 22 -8 19 -23 19 -31 0z"/>
<path d="M6787 4344 c-14 -15 -6 -34 14 -34 14 0 19 5 17 17 -3 18 -20 27 -31
17z"/>
<path d="M6913 4334 c-7 -19 2 -28 22 -21 19 8 19 23 0 31 -9 3 -18 -1 -22
-10z"/>
<path d="M330 4330 c0 -5 5 -10 10 -10 6 0 10 5 10 10 0 6 -4 10 -10 10 -5 0
-10 -4 -10 -10z"/>
<path d="M452 4328 c6 -18 28 -21 28 -4 0 9 -7 16 -16 16 -9 0 -14 -5 -12 -12z"/>
<path d="M582 4329 c2 -6 8 -10 13 -10 5 0 11 4 13 10 2 6 -4 11 -13 11 -9 0
-15 -5 -13 -11z"/>
<path d="M703 4328 c2 -7 10 -13 17 -13 7 0 15 6 18 13 2 7 -5 12 -18 12 -13
0 -20 -5 -17 -12z"/>
<path d="M822 4328 c7 -19 38 -22 38 -4 0 10 -9 16 -21 16 -12 0 -19 -5 -17
-12z"/>
<path d="M7033 4328 c2 -7 10 -13 17 -13 7 0 15 6 18 13 2 7 -5 12 -18 12 -13
0 -20 -5 -17 -12z"/>
<path d="M7162 4329 c2 -6 8 -10 13 -10 5 0 11 4 13 10 2 6 -4 11 -13 11 -9 0
-15 -5 -13 -11z"/>
<path d="M7290 4324 c0 -17 22 -14 28 4 2 7 -3 12 -12 12 -9 0 -16 -7 -16 -16z"/>
<path d="M7420 4330 c0 -5 5 -10 10 -10 6 0 10 5 10 10 0 6 -4 10 -10 10 -5 0
-10 -4 -10 -10z"/>
<path d="M1021 4280 c-14 -8 -8 -40 7 -40 5 0 15 6 21 14 15 17 -8 39 -28 26z"/>
<path d="M1143 4274 c-8 -21 13 -42 28 -27 13 13 5 43 -11 43 -6 0 -13 -7 -17
-16z"/>
<path d="M1271 4280 c-14 -8 -8 -40 7 -40 5 0 15 6 21 14 15 17 -8 39 -28 26z"/>
<path d="M1393 4274 c-8 -21 13 -42 28 -27 13 13 5 43 -11 43 -6 0 -13 -7 -17
-16z"/>
<path d="M6343 4274 c-8 -21 13 -42 28 -27 13 13 5 43 -11 43 -6 0 -13 -7 -17
-16z"/>
<path d="M6471 4276 c-8 -10 -7 -17 3 -26 17 -13 36 -6 36 15 0 19 -27 26 -39
11z"/>
<path d="M6593 4274 c-8 -21 13 -42 28 -27 13 13 5 43 -11 43 -6 0 -13 -7 -17
-16z"/>
<path d="M6721 4276 c-8 -10 -7 -17 3 -26 17 -13 36 -6 36 15 0 19 -27 26 -39
11z"/>
<path d="M270 4265 c0 -8 5 -15 10 -15 6 0 10 7 10 15 0 8 -4 15 -10 15 -5 0
-10 -7 -10 -15z"/>
<path d="M392 4268 c6 -18 28 -21 28 -4 0 9 -7 16 -16 16 -9 0 -14 -5 -12 -12z"/>
<path d="M517 4273 c-13 -12 -7 -23 13 -23 11 0 20 7 20 15 0 15 -21 21 -33 8z"/>
<path d="M640 4266 c0 -8 4 -17 9 -20 11 -7 33 18 24 27 -12 12 -33 7 -33 -7z"/>
<path d="M762 4263 c2 -10 10 -18 18 -18 8 0 16 8 18 18 2 12 -3 17 -18 17
-15 0 -20 -5 -18 -17z"/>
<path d="M1516 4271 c-3 -5 0 -14 8 -20 10 -8 16 -8 25 2 6 8 8 17 4 20 -9 10
-31 9 -37 -2z"/>
<path d="M6216 4271 c-7 -11 18 -33 27 -24 4 3 7 12 7 20 0 15 -26 18 -34 4z"/>
<path d="M6972 4263 c2 -10 10 -18 18 -18 8 0 16 8 18 18 2 12 -3 17 -18 17
-15 0 -20 -5 -18 -17z"/>
<path d="M7097 4274 c-9 -10 2 -24 19 -24 8 0 14 7 14 15 0 15 -21 21 -33 9z"/>
<path d="M7220 4266 c0 -10 9 -16 21 -16 24 0 21 23 -4 28 -10 2 -17 -3 -17
-12z"/>
<path d="M7350 4264 c0 -17 22 -14 28 4 2 7 -3 12 -12 12 -9 0 -16 -7 -16 -16z"/>
<path d="M7480 4265 c0 -8 5 -15 10 -15 6 0 10 7 10 15 0 8 -4 15 -10 15 -5 0
-10 -7 -10 -15z"/>
<path d="M1079 4214 c-9 -11 -9 -18 -1 -26 14 -14 42 -3 42 16 0 20 -27 27
-41 10z"/>
<path d="M1213 4223 c-7 -3 -13 -13 -13 -24 0 -23 35 -26 43 -5 7 17 -13 35
-30 29z"/>
<path d="M6411 4221 c-17 -11 -7 -41 13 -41 22 0 30 20 15 36 -9 8 -19 10 -28
5z"/>
<path d="M6532 4218 c-15 -15 -3 -38 19 -38 12 0 19 7 19 19 0 22 -23 34 -38
19z"/>
<path d="M6661 4221 c-17 -11 -7 -41 13 -41 22 0 30 20 15 36 -9 8 -19 10 -28
5z"/>
<path d="M326 4212 c-9 -14 9 -31 23 -23 7 5 10 14 7 20 -8 13 -23 14 -30 3z"/>
<path d="M452 4203 c4 -21 33 -25 33 -3 0 8 -8 16 -18 18 -14 3 -18 -1 -15
-15z"/>
<path d="M575 4210 c-8 -14 3 -30 21 -30 8 0 14 9 14 20 0 21 -24 28 -35 10z"/>
<path d="M700 4199 c0 -14 5 -19 17 -17 26 5 29 38 4 38 -15 0 -21 -6 -21 -21z"/>
<path d="M945 4210 c-9 -15 4 -30 26 -30 12 0 19 7 19 20 0 21 -33 29 -45 10z"/>
<path d="M1324 4209 c-9 -15 12 -33 30 -26 9 4 16 13 16 22 0 17 -35 21 -46 4z"/>
<path d="M1452 4203 c4 -22 43 -25 43 -3 0 8 -11 16 -23 18 -19 3 -23 0 -20
-15z"/>
<path d="M6274 4209 c-9 -15 12 -33 30 -26 9 4 16 13 16 22 0 17 -35 21 -46 4z"/>
<path d="M6780 4200 c0 -16 5 -21 23 -18 12 2 22 10 22 18 0 8 -10 16 -22 18
-18 3 -23 -2 -23 -18z"/>
<path d="M7032 4203 c5 -26 38 -29 38 -4 0 15 -6 21 -21 21 -14 0 -19 -5 -17
-17z"/>
<path d="M7162 4203 c2 -10 10 -18 18 -18 22 0 18 29 -3 33 -14 3 -18 -1 -15
-15z"/>
<path d="M7284 4209 c-8 -14 11 -33 25 -25 6 4 11 14 11 22 0 16 -26 19 -36 3z"/>
<path d="M7417 4214 c-13 -13 -7 -24 14 -24 11 0 19 5 17 12 -5 14 -22 21 -31
12z"/>
<path d="M210 4200 c0 -5 5 -10 10 -10 6 0 10 5 10 10 0 6 -4 10 -10 10 -5 0
-10 -4 -10 -10z"/>
<path d="M7540 4200 c0 -5 5 -10 10 -10 6 0 10 5 10 10 0 6 -4 10 -10 10 -5 0
-10 -4 -10 -10z"/>
<path d="M264 4149 c-10 -17 13 -36 27 -22 12 12 4 33 -11 33 -5 0 -12 -5 -16
-11z"/>
<path d="M385 4150 c-8 -14 3 -30 21 -30 8 0 14 9 14 20 0 21 -24 28 -35 10z"/>
<path d="M517 4153 c-14 -13 -6 -33 13 -33 13 0 20 7 20 20 0 19 -20 27 -33
13z"/>
<path d="M635 4150 c-4 -7 -3 -16 3 -22 14 -14 45 -2 40 15 -6 16 -34 21 -43
7z"/>
<path d="M762 4138 c2 -13 10 -23 18 -23 8 0 16 10 18 23 3 17 -2 22 -18 22
-16 0 -21 -5 -18 -22z"/>
<path d="M1010 4141 c0 -27 19 -36 37 -18 18 18 9 37 -18 37 -12 0 -19 -7 -19
-19z"/>
<path d="M1134 4149 c-8 -14 21 -43 35 -35 6 4 11 16 11 27 0 21 -34 27 -46 8z"/>
<path d="M1260 4141 c0 -27 19 -36 37 -18 18 18 9 37 -18 37 -12 0 -19 -7 -19
-19z"/>
<path d="M1392 4138 c2 -13 10 -23 18 -23 8 0 16 10 18 23 3 17 -2 22 -18 22
-16 0 -21 -5 -18 -22z"/>
<path d="M6342 4138 c2 -13 10 -23 18 -23 8 0 16 10 18 23 3 17 -2 22 -18 22
-16 0 -21 -5 -18 -22z"/>
<path d="M6460 4146 c0 -18 27 -39 40 -31 5 3 10 15 10 26 0 14 -7 19 -25 19
-15 0 -25 -6 -25 -14z"/>
<path d="M6590 4141 c0 -27 19 -36 37 -18 18 18 9 37 -18 37 -12 0 -19 -7 -19
-19z"/>
<path d="M6714 4149 c-8 -14 21 -43 35 -35 19 12 13 46 -8 46 -11 0 -23 -5
-27 -11z"/>
<path d="M6970 4142 c0 -24 8 -32 26 -25 22 8 17 43 -6 43 -13 0 -20 -7 -20
-18z"/>
<path d="M7095 4150 c-4 -7 -3 -16 3 -22 14 -14 45 -2 40 15 -6 16 -34 21 -43
7z"/>
<path d="M7220 4141 c0 -15 6 -21 21 -21 14 0 19 5 17 17 -5 26 -38 29 -38 4z"/>
<path d="M7346 4145 c-3 -9 1 -18 10 -22 19 -7 39 11 30 26 -10 16 -33 13 -40
-4z"/>
<path d="M7474 4149 c-10 -17 13 -36 27 -22 12 12 4 33 -11 33 -5 0 -12 -5
-16 -11z"/>
<path d="M333 4093 c-21 -7 -15 -33 7 -33 11 0 20 6 20 14 0 18 -11 25 -27 19z"/>
<path d="M451 4086 c-8 -10 -8 -16 2 -24 17 -14 42 2 34 22 -8 20 -21 20 -36
2z"/>
<path d="M574 4085 c-7 -18 3 -35 21 -35 15 0 24 19 18 38 -6 17 -32 15 -39
-3z"/>
<path d="M693 4084 c-3 -8 -1 -20 5 -26 16 -16 42 -2 42 22 0 24 -38 28 -47 4z"/>
<path d="M944 4085 c-8 -19 3 -35 26 -35 19 0 34 25 24 41 -8 14 -44 10 -50
-6z"/>
<path d="M1073 4084 c-3 -8 -1 -20 5 -26 16 -16 42 -2 42 22 0 24 -38 28 -47
4z"/>
<path d="M1200 4075 c0 -29 34 -36 44 -9 8 21 -1 34 -25 34 -14 0 -19 -7 -19
-25z"/>
<path d="M1323 4084 c-3 -8 -1 -20 5 -26 16 -16 42 -2 42 22 0 24 -38 28 -47
4z"/>
<path d="M6397 4086 c-7 -19 18 -40 39 -32 8 3 14 14 12 23 -4 22 -43 29 -51
9z"/>
<path d="M6526 4091 c-10 -16 5 -41 25 -41 14 0 19 7 19 25 0 18 -5 25 -19 25
-11 0 -22 -4 -25 -9z"/>
<path d="M6652 4078 c2 -15 10 -23 23 -23 30 0 27 39 -3 43 -20 3 -23 0 -20
-20z"/>
<path d="M6776 4091 c-11 -18 6 -42 28 -39 29 4 29 42 -1 46 -11 2 -24 -1 -27
-7z"/>
<path d="M7032 4078 c4 -27 33 -36 42 -13 8 22 -1 35 -25 35 -15 0 -20 -6 -17
-22z"/>
<path d="M7157 4086 c-8 -20 20 -43 35 -28 14 14 3 42 -16 42 -7 0 -16 -6 -19
-14z"/>
<path d="M7283 4084 c-7 -18 17 -38 31 -24 11 11 1 40 -14 40 -6 0 -13 -7 -17
-16z"/>
<path d="M7416 4093 c-13 -14 -5 -33 14 -33 11 0 20 6 20 14 0 15 -24 28 -34
19z"/>
<path d="M200 4075 c0 -8 7 -15 15 -15 8 0 15 7 15 15 0 8 -7 15 -15 15 -8 0
-15 -7 -15 -15z"/>
<path d="M7540 4075 c0 -8 7 -15 15 -15 8 0 15 7 15 15 0 8 -7 15 -15 15 -8 0
-15 -7 -15 -15z"/>
<path d="M390 4030 c-18 -11 -4 -42 17 -38 10 2 19 10 21 19 4 19 -19 31 -38
19z"/>
<path d="M517 4034 c-16 -16 -7 -44 14 -44 15 0 20 5 17 22 -3 22 -19 33 -31
22z"/>
<path d="M634 4025 c-4 -9 -2 -21 4 -27 15 -15 44 -1 40 19 -4 23 -36 29 -44
8z"/>
<path d="M1007 4026 c-8 -20 19 -47 39 -39 22 8 13 47 -12 51 -12 2 -24 -4
-27 -12z"/>
<path d="M1133 4024 c-3 -8 2 -23 11 -32 14 -15 18 -15 31 -1 9 9 13 23 9 32
-8 21 -43 22 -51 1z"/>
<path d="M1267 4034 c-12 -12 -8 -42 6 -47 21 -8 39 8 35 29 -3 19 -29 30 -41
18z"/>
<path d="M1383 4024 c-3 -8 1 -22 9 -30 19 -19 52 3 42 29 -8 21 -43 22 -51 1z"/>
<path d="M6336 4023 c-4 -9 -1 -23 7 -30 18 -18 51 5 41 30 -8 22 -40 22 -48
0z"/>
<path d="M6467 4034 c-12 -12 -8 -42 6 -47 21 -8 39 8 35 29 -3 19 -29 30 -41
18z"/>
<path d="M6586 4023 c-4 -9 0 -23 9 -32 13 -14 17 -14 31 1 9 9 14 24 11 32
-8 21 -43 20 -51 -1z"/>
<path d="M6717 4033 c-12 -12 -7 -41 8 -47 19 -7 46 20 39 39 -6 15 -35 20
-47 8z"/>
<path d="M7094 4025 c-4 -9 -2 -21 4 -27 15 -15 44 -1 40 19 -4 23 -36 29 -44
8z"/>
<path d="M7227 4034 c-16 -16 -7 -44 14 -44 15 0 20 5 17 22 -3 22 -19 33 -31
22z"/>
<path d="M7350 4030 c-18 -11 -4 -42 17 -38 10 2 19 10 21 19 4 19 -19 31 -38
19z"/>
<path d="M262 4013 c2 -10 10 -18 18 -18 8 0 16 8 18 18 2 12 -3 17 -18 17
-15 0 -20 -5 -18 -17z"/>
<path d="M7472 4013 c2 -10 10 -18 18 -18 8 0 16 8 18 18 2 12 -3 17 -18 17
-15 0 -20 -5 -18 -17z"/>
</g>
</svg>
